<svg xmlns="http://www.w3.org/2000/svg" width="64" height="64" viewBox="0 0 496.124 496.124"><g fill="none" fill-rule="evenodd"><path fill="#3f7aa0" d="M0 0h500v500H0Z"/><g fill="#fff"><path fill-rule="nonzero" d="M218 227c-7.18 0-13 5.752-13 12.847s5.82 0 13 0 13 7.095 13 0S225.18 227 218 227m66 0c-7.18 0-13 5.752-13 12.847s5.82 0 13 0 13 7.095 13 0S291.18 227 284 227" opacity=".896"/><path d="M379.067 296.022c26.563-10.754 45.78-43.015 45.78-80.937 0-46.978-29.39-84.9-64.996-84.9-10.174 0-19.782 2.83-28.26 8.49-2.825-5.093-6.216-9.621-9.607-13.583v-.566c-4.522-6.226-10.739-11.886-18.086-16.98C288.638 96.226 269.422 90 249.64 90c-9.609 0-19.217 1.698-28.26 4.528-12.433 3.396-25.998 10.754-37.866 23.206l-1.696 1.698c-.565 1.132-1.696 1.698-2.26 2.264 0 .566-.566.566-.566 1.132-3.956 5.094-7.912 10.188-11.304 15.848-8.477-5.66-18.085-7.924-27.693-7.924-35.607 0-64.996 37.921-64.996 84.899 0 37.922 18.65 70.183 45.78 80.937-.566 2.83-1.13 6.226-1.696 9.056-.565 2.83-.565 6.226-.565 9.056 0 52.071 59.344 94.521 131.687 94.521s131.687-42.45 131.687-94.521c0-2.83 0-6.226-.566-9.056-.565-3.396-1.13-6.226-2.26-9.622 0 .566 0 0 0 0zm24.302-80.937c0 28.866-14.13 54.335-32.78 61.127-6.782-10.754-15.825-20.941-28.259-29.431v-63.958c0-7.924-1.13-16.414-3.391-24.338 5.087-3.962 11.869-7.358 20.346-7.358 24.303 0 44.084 28.866 44.084 63.958m-307.457 0c0-35.092 19.78-63.392 43.518-63.392 7.913 0 14.695 3.396 19.782 7.358-2.26 7.924-3.391 16.414-3.391 24.338v64.524q-17.804 12.734-27.129 28.865c-18.65-7.924-32.78-32.827-32.78-61.693M249.64 387.147c-61.04 0-110.776-32.827-110.776-73.013 0-3.396.565-6.226 1.13-9.622 0-.566 0-1.132.566-1.698.565-3.396 1.695-6.226 3.39-9.622q7.631-16.131 25.434-28.866l1.696-1.698 3.39-3.962c1.696-1.698 2.827-4.527 2.827-7.357v-68.486c0-8.49 1.695-16.414 4.521-24.338 1.696-4.528 3.391-8.49 7.347-14.15s13.565-10.187 20.347-10.187c18.65 0 26.563 10.188 28.824 18.111 1.695 3.962 5.652 6.792 10.173 7.358 4.522 0 8.478-2.83 10.173-6.792 6.217-18.677 34.476-26.035 48.04-13.583 7.913 7.923 8.478 13.017 11.304 20.375 0 .566.565 1.132 1.13 1.698v1.132c2.261 6.792 3.392 14.15 3.392 21.508v68.486c0 2.83 1.13 5.66 2.826 7.357l2.826 2.83 1.695 1.698c12.434 8.49 21.477 18.678 26.564 29.998 1.13 2.83 2.26 6.226 3.39 9.056 0 .566.566 1.132.566 2.264.565 3.396 1.13 6.226 1.13 9.622-1.13 39.054-50.866 71.881-111.905 71.881"/></g></g></svg>