<?xml version="1.0" encoding="UTF-8" standalone="no"?>
<svg
   width="64"
   height="64"
   version="1.1"
   id="svg4"
   sodipodi:docname="PDFMonkey.svg"
   viewBox="0 0 496.12403 496.12403"
   inkscape:version="1.4 (86a8ad7, 2024-10-11)"
   xmlns:inkscape="http://www.inkscape.org/namespaces/inkscape"
   xmlns:sodipodi="http://sodipodi.sourceforge.net/DTD/sodipodi-0.dtd"
   xmlns="http://www.w3.org/2000/svg"
   xmlns:svg="http://www.w3.org/2000/svg">
  <defs
     id="defs4" />
  <sodipodi:namedview
     id="namedview4"
     pagecolor="#ffffff"
     bordercolor="#000000"
     borderopacity="0.25"
     inkscape:showpageshadow="2"
     inkscape:pageopacity="0.0"
     inkscape:pagecheckerboard="0"
     inkscape:deskcolor="#d1d1d1"
     inkscape:zoom="3.774"
     inkscape:cx="250"
     inkscape:cy="250"
     inkscape:window-width="3840"
     inkscape:window-height="2089"
     inkscape:window-x="-8"
     inkscape:window-y="-8"
     inkscape:window-maximized="1"
     inkscape:current-layer="g4" />
  <g
     fill="none"
     fill-rule="evenodd"
     id="g4">
    <path
       fill="#3f7aa0"
       d="M 0,0 H 500 V 500 H 0 Z"
       id="path1" />
    <g
       fill="#ffffff"
       id="g3">
      <path
         fill-rule="nonzero"
         d="m 218,227 c -7.18,0 -13,5.752 -13,12.847 0,7.095 5.82,0 13,0 7.18,0 13,7.095 13,0 C 231,232.752 225.18,227 218,227 Z m 66,0 c -7.18,0 -13,5.752 -13,12.847 0,7.095 5.82,0 13,0 7.18,0 13,7.095 13,0 C 297,232.752 291.18,227 284,227 Z"
         opacity="0.896"
         id="path2" />
      <path
         d="m 379.067,296.022 c 26.563,-10.754 45.78,-43.015 45.78,-80.937 0,-46.978 -29.39,-84.9 -64.996,-84.9 -10.174,0 -19.782,2.83 -28.26,8.49 -2.825,-5.093 -6.216,-9.621 -9.607,-13.583 v -0.566 C 317.462,118.3 311.245,112.64 303.898,107.546 288.638,96.226 269.422,90 249.64,90 c -9.609,0 -19.217,1.698 -28.26,4.528 -12.433,3.396 -25.998,10.754 -37.866,23.206 l -1.696,1.698 c -0.565,1.132 -1.696,1.698 -2.26,2.264 0,0.566 -0.566,0.566 -0.566,1.132 -3.956,5.094 -7.912,10.188 -11.304,15.848 -8.477,-5.66 -18.085,-7.924 -27.693,-7.924 -35.607,0 -64.996,37.921 -64.996,84.899 0,37.922 18.65,70.183 45.78,80.937 -0.566,2.83 -1.13,6.226 -1.696,9.056 -0.565,2.83 -0.565,6.226 -0.565,9.056 0,52.071 59.344,94.521 131.687,94.521 72.343,0 131.687,-42.45 131.687,-94.521 0,-2.83 0,-6.226 -0.566,-9.056 -0.565,-3.396 -1.13,-6.226 -2.26,-9.622 0,0.566 0,0 0,0 z m 24.302,-80.937 c 0,28.866 -14.13,54.335 -32.78,61.127 -6.782,-10.754 -15.825,-20.941 -28.259,-29.431 v -63.958 c 0,-7.924 -1.13,-16.414 -3.391,-24.338 5.087,-3.962 11.869,-7.358 20.346,-7.358 24.303,0 44.084,28.866 44.084,63.958 z m -307.457,0 c 0,-35.092 19.78,-63.392 43.518,-63.392 7.913,0 14.695,3.396 19.782,7.358 -2.26,7.924 -3.391,16.414 -3.391,24.338 v 64.524 c -11.87,8.49 -20.912,18.111 -27.129,28.865 -18.65,-7.924 -32.78,-32.827 -32.78,-61.693 z M 249.64,387.147 c -61.04,0 -110.776,-32.827 -110.776,-73.013 0,-3.396 0.565,-6.226 1.13,-9.622 0,-0.566 0,-1.132 0.566,-1.698 0.565,-3.396 1.695,-6.226 3.39,-9.622 5.088,-10.754 13.565,-20.376 25.434,-28.866 l 1.696,-1.698 3.39,-3.962 c 1.696,-1.698 2.827,-4.527 2.827,-7.357 v -68.486 c 0,-8.49 1.695,-16.414 4.521,-24.338 1.696,-4.528 3.391,-8.49 7.347,-14.15 3.957,-5.66 13.565,-10.187 20.347,-10.187 18.65,0 26.563,10.188 28.824,18.111 1.695,3.962 5.652,6.792 10.173,7.358 4.522,0 8.478,-2.83 10.173,-6.792 6.217,-18.677 34.476,-26.035 48.04,-13.583 7.913,7.923 8.478,13.017 11.304,20.375 0,0.566 0.565,1.132 1.13,1.698 v 1.132 c 2.261,6.792 3.392,14.15 3.392,21.508 v 68.486 c 0,2.83 1.13,5.66 2.826,7.357 l 2.826,2.83 1.695,1.698 c 12.434,8.49 21.477,18.678 26.564,29.998 1.13,2.83 2.26,6.226 3.39,9.056 0,0.566 0.566,1.132 0.566,2.264 0.565,3.396 1.13,6.226 1.13,9.622 -1.13,39.054 -50.866,71.881 -111.905,71.881 z"
         id="path3" />
    </g>
  </g>
</svg>
